<?xml version="1.0" encoding="UTF-8"?>
<svg xmlns="http://www.w3.org/2000/svg" width="2172" height="724" viewBox="0 0 2172 724" role="img" aria-labelledby="title desc">
  <title id="title">docstrata logo</title>
  <desc id="desc">Retro pixel-art style logo reading docstrata with a blue stepped gradient on a white background.</desc>
  <defs>
    <linearGradient id="textGradient" x1="0" y1="263" x2="0" y2="482" gradientUnits="userSpaceOnUse">
      <stop offset="0%" stop-color="#69b7ff"/><stop offset="18%" stop-color="#4ea9ff"/><stop offset="42%" stop-color="#3c9efd"/><stop offset="58%" stop-color="#2d89fd"/><stop offset="78%" stop-color="#146df8"/><stop offset="100%" stop-color="#055af4"/>
    </linearGradient>
    <linearGradient id="highlight" x1="0" y1="263" x2="0" y2="482" gradientUnits="userSpaceOnUse">
      <stop offset="0%" stop-color="#ffffff" stop-opacity="0.17"/>
      <stop offset="22%" stop-color="#ffffff" stop-opacity="0.06"/>
      <stop offset="45%" stop-color="#ffffff" stop-opacity="0.00"/>
      <stop offset="100%" stop-color="#ffffff" stop-opacity="0.00"/>
    </linearGradient>
    <clipPath id="textClip" clipPathUnits="userSpaceOnUse">
      <path d="M 1897 322 L 1897 323 L 1896 324 L 1896 333 L 1895 334 L 1895 335 L 1894 336 L 1893 335 L 1892 336 L 1889 336 L 1887 338 L 1886 337 L 1887 338 L 1887 339 L 1886 340 L 1886 342 L 1885 343 L 1885 357 L 1884 358 L 1883 358 L 1883 359 L 1882 360 L 1880 360 L 1879 361 L 1878 361 L 1877 362 L 1877 364 L 1876 365 L 1876 371 L 1878 373 L 1986 373 L 1987 374 L 1987 375 L 1986 376 L 1986 384 L 1985 385 L 1983 385 L 1982 384 L 1981 384 L 1982 384 L 1983 385 L 1982 386 L 1881 386 L 1879 388 L 1878 388 L 1876 390 L 1874 390 L 1872 392 L 1871 392 L 1871 398 L 1870 399 L 1862 399 L 1859 401 L 1856 401 L 1856 402 L 1857 403 L 1856 404 L 1856 412 L 1851 417 L 1851 418 L 1849 420 L 1849 422 L 1848 423 L 1848 424 L 1846 427 L 1846 428 L 1846 427 L 1847 426 L 1848 427 L 1848 436 L 1845 438 L 1846 438 L 1847 439 L 1846 440 L 1845 440 L 1844 441 L 1843 441 L 1839 447 L 1838 446 L 1838 449 L 1839 448 L 1840 449 L 1840 450 L 1839 451 L 1839 454 L 1841 456 L 1840 457 L 1840 458 L 1843 458 L 1844 459 L 1843 460 L 1842 460 L 1842 461 L 1844 463 L 1844 466 L 1845 467 L 1853 467 L 1854 468 L 1854 470 L 1853 471 L 1852 470 L 1852 469 L 1847 469 L 1851 469 L 1853 471 L 1852 472 L 1852 476 L 1851 477 L 1850 477 L 1850 479 L 1851 480 L 1852 479 L 1853 480 L 1854 480 L 1855 481 L 1854 482 L 1855 481 L 1916 481 L 1917 482 L 1936 482 L 1937 481 L 2041 481 L 2043 479 L 2043 478 L 2044 477 L 2044 474 L 2043 473 L 2043 471 L 2044 470 L 2044 469 L 2043 468 L 2044 467 L 2045 467 L 2047 465 L 2047 464 L 2048 463 L 2048 462 L 2050 460 L 2052 460 L 2055 458 L 2055 443 L 2057 441 L 2061 441 L 2064 438 L 2064 428 L 2065 427 L 2069 427 L 2071 425 L 2071 414 L 2072 413 L 2075 413 L 2077 410 L 2077 402 L 2076 401 L 2077 400 L 2078 400 L 2080 397 L 2080 389 L 2081 388 L 2085 388 L 2088 385 L 2088 374 L 2089 373 L 2090 373 L 2090 372 L 2091 371 L 2091 362 L 2092 361 L 2093 361 L 2094 360 L 2094 359 L 2097 356 L 2097 348 L 2095 346 L 2087 346 L 2086 345 L 2086 344 L 2088 342 L 2088 337 L 2089 336 L 2089 335 L 2088 334 L 2088 333 L 2084 333 L 2083 332 L 2079 332 L 2078 331 L 2078 330 L 2079 329 L 2079 324 L 2078 323 L 2078 322 L 2076 320 L 1900 320 L 1898 322 Z M 1843 461 L 1844 460 L 1845 461 L 1845 462 L 1844 463 L 1843 462 Z M 1840 457 L 1841 456 L 1846 456 L 1847 457 L 1845 460 L 1844 459 L 1844 458 L 1841 458 Z M 1846 438 L 1847 437 L 1848 438 L 1847 439 Z M 1847 425 L 1848 424 L 1849 425 L 1848 426 Z M 1933 435 L 1933 427 L 1934 426 L 1935 426 L 1935 424 L 1936 423 L 1937 424 L 1941 424 L 1937 424 L 1936 423 L 1937 422 L 1967 422 L 1968 423 L 1967 424 L 1966 424 L 1966 425 L 1964 427 L 1962 427 L 1961 428 L 1962 429 L 1963 428 L 1965 431 L 1965 434 L 1961 438 L 1953 438 L 1952 437 L 1944 437 L 1943 438 L 1942 437 L 1935 437 L 1934 436 L 1935 435 L 1935 431 L 1935 435 L 1934 436 Z M 1848 423 L 1849 422 L 1850 423 L 1849 424 Z M 1856 402 L 1857 401 L 1858 402 L 1857 403 Z M 2077 332 L 2078 331 L 2079 332 L 2078 333 Z M 1489 321 L 1487 323 L 1487 333 L 1486 334 L 1486 335 L 1485 336 L 1484 335 L 1481 335 L 1480 336 L 1479 336 L 1477 339 L 1477 342 L 1476 343 L 1476 356 L 1475 357 L 1474 357 L 1473 358 L 1472 358 L 1469 361 L 1469 362 L 1468 363 L 1468 369 L 1467 370 L 1466 369 L 1467 370 L 1467 371 L 1469 373 L 1575 373 L 1576 374 L 1575 375 L 1573 375 L 1573 376 L 1575 376 L 1575 375 L 1576 374 L 1577 374 L 1578 375 L 1578 379 L 1577 380 L 1577 383 L 1574 386 L 1571 386 L 1570 385 L 1568 385 L 1567 386 L 1472 386 L 1470 388 L 1469 388 L 1468 389 L 1466 389 L 1464 391 L 1463 391 L 1462 392 L 1460 392 L 1460 393 L 1462 396 L 1462 398 L 1461 399 L 1454 399 L 1451 401 L 1450 400 L 1451 401 L 1449 403 L 1449 412 L 1448 413 L 1446 413 L 1445 414 L 1444 414 L 1442 416 L 1442 421 L 1440 423 L 1438 423 L 1438 424 L 1439 425 L 1437 427 L 1437 439 L 1436 440 L 1435 440 L 1433 442 L 1433 443 L 1431 446 L 1431 449 L 1429 451 L 1429 454 L 1431 456 L 1437 456 L 1438 457 L 1437 458 L 1431 458 L 1436 458 L 1437 459 L 1437 460 L 1435 463 L 1435 465 L 1437 467 L 1445 467 L 1446 468 L 1446 470 L 1444 472 L 1444 479 L 1447 481 L 1628 481 L 1629 482 L 1632 480 L 1633 481 L 1632 480 L 1633 479 L 1633 468 L 1634 467 L 1635 467 L 1636 466 L 1637 466 L 1637 465 L 1639 463 L 1639 462 L 1640 461 L 1641 462 L 1643 460 L 1644 461 L 1643 460 L 1646 458 L 1646 443 L 1648 441 L 1652 441 L 1654 439 L 1654 435 L 1655 434 L 1655 432 L 1656 431 L 1657 432 L 1657 433 L 1657 431 L 1659 429 L 1658 429 L 1657 428 L 1658 427 L 1659 427 L 1661 424 L 1661 414 L 1662 413 L 1665 413 L 1667 411 L 1667 401 L 1669 399 L 1669 391 L 1672 388 L 1675 388 L 1678 385 L 1678 375 L 1682 371 L 1682 362 L 1687 357 L 1687 356 L 1688 355 L 1688 348 L 1686 346 L 1678 346 L 1677 345 L 1679 342 L 1679 338 L 1680 337 L 1681 338 L 1681 340 L 1681 338 L 1680 337 L 1680 334 L 1679 333 L 1674 333 L 1673 332 L 1671 332 L 1670 333 L 1669 333 L 1668 332 L 1668 331 L 1670 329 L 1670 323 L 1667 320 L 1491 320 L 1490 321 Z M 1640 460 L 1641 459 L 1642 460 L 1641 461 Z M 1553 435 L 1554 434 L 1555 435 L 1554 436 Z M 1438 424 L 1439 423 L 1441 423 L 1442 424 L 1441 425 L 1439 425 Z M 1525 436 L 1525 427 L 1528 424 L 1528 423 L 1529 422 L 1558 422 L 1559 423 L 1556 426 L 1556 434 L 1555 435 L 1554 434 L 1554 426 L 1553 426 L 1553 427 L 1552 428 L 1553 428 L 1554 429 L 1554 434 L 1553 435 L 1551 435 L 1553 435 L 1554 436 L 1553 437 L 1549 437 L 1548 438 L 1544 438 L 1543 437 L 1526 437 Z M 1463 322 L 1461 320 L 1380 320 L 1379 321 L 1377 321 L 1376 320 L 1289 320 L 1287 322 L 1286 322 L 1286 333 L 1285 334 L 1284 333 L 1284 331 L 1284 333 L 1283 334 L 1284 335 L 1283 336 L 1279 336 L 1278 337 L 1277 337 L 1277 338 L 1275 340 L 1275 343 L 1274 344 L 1274 358 L 1272 361 L 1268 361 L 1266 363 L 1266 364 L 1264 366 L 1264 372 L 1261 375 L 1261 376 L 1260 377 L 1260 378 L 1261 379 L 1261 386 L 1259 388 L 1255 388 L 1252 391 L 1252 393 L 1251 394 L 1251 397 L 1250 398 L 1249 398 L 1250 398 L 1251 399 L 1250 400 L 1249 400 L 1249 408 L 1248 409 L 1248 411 L 1249 412 L 1248 413 L 1244 413 L 1241 416 L 1241 417 L 1239 419 L 1239 420 L 1240 421 L 1240 424 L 1239 425 L 1239 426 L 1238 427 L 1237 427 L 1237 439 L 1236 440 L 1232 440 L 1228 444 L 1228 445 L 1227 446 L 1227 452 L 1226 453 L 1225 452 L 1226 453 L 1226 465 L 1223 467 L 1221 467 L 1219 470 L 1218 470 L 1217 469 L 1218 468 L 1216 471 L 1216 472 L 1216 471 L 1217 470 L 1218 471 L 1218 479 L 1220 481 L 1308 481 L 1309 482 L 1310 481 L 1311 481 L 1311 480 L 1312 479 L 1313 479 L 1313 467 L 1314 466 L 1318 466 L 1318 465 L 1319 464 L 1320 465 L 1322 462 L 1324 462 L 1321 462 L 1321 464 L 1320 465 L 1319 464 L 1319 461 L 1320 460 L 1323 460 L 1325 458 L 1325 445 L 1326 444 L 1325 443 L 1325 442 L 1328 440 L 1331 440 L 1333 438 L 1333 428 L 1334 427 L 1337 427 L 1339 425 L 1339 415 L 1341 413 L 1342 413 L 1344 411 L 1344 402 L 1345 401 L 1346 401 L 1347 400 L 1349 400 L 1350 399 L 1350 389 L 1353 387 L 1435 387 L 1437 385 L 1437 384 L 1438 383 L 1438 380 L 1439 379 L 1440 379 L 1440 378 L 1441 377 L 1440 376 L 1441 375 L 1442 375 L 1442 373 L 1443 372 L 1444 373 L 1443 372 L 1443 363 L 1445 361 L 1446 361 L 1447 360 L 1449 360 L 1450 361 L 1453 359 L 1453 351 L 1454 350 L 1455 350 L 1454 350 L 1453 349 L 1453 347 L 1455 345 L 1455 337 L 1457 334 L 1460 334 L 1461 333 L 1461 332 L 1462 331 L 1462 325 L 1463 324 Z M 1438 377 L 1439 376 L 1440 376 L 1441 377 L 1440 378 L 1439 378 Z M 1283 334 L 1284 333 L 1285 334 L 1284 335 Z M 802 480 L 803 480 L 804 481 L 854 481 L 855 482 L 860 482 L 861 481 L 870 481 L 871 482 L 891 482 L 892 481 L 1001 481 L 1004 478 L 1004 474 L 1005 473 L 1006 474 L 1006 477 L 1006 474 L 1007 473 L 1007 470 L 1008 469 L 1011 469 L 1007 469 L 1007 473 L 1006 474 L 1005 473 L 1005 468 L 1006 467 L 1018 467 L 1020 465 L 1021 465 L 1021 464 L 1022 463 L 1022 457 L 1023 456 L 1024 457 L 1024 463 L 1024 462 L 1025 461 L 1025 460 L 1024 459 L 1026 457 L 1027 457 L 1025 457 L 1024 456 L 1025 455 L 1028 455 L 1029 454 L 1030 455 L 1031 454 L 1031 453 L 1031 454 L 1030 455 L 1029 454 L 1029 446 L 1031 443 L 1032 444 L 1032 445 L 1032 444 L 1033 443 L 1035 443 L 1030 443 L 1029 442 L 1030 441 L 1035 441 L 1038 438 L 1038 429 L 1041 427 L 1041 420 L 1042 419 L 1042 415 L 1043 414 L 1044 414 L 1045 413 L 1045 412 L 1048 409 L 1049 409 L 1050 408 L 1049 409 L 1048 408 L 1048 401 L 1046 399 L 1038 399 L 1037 398 L 1037 397 L 1038 396 L 1039 397 L 1045 397 L 1039 397 L 1038 396 L 1038 393 L 1039 392 L 1039 388 L 1040 387 L 1041 388 L 1040 387 L 1039 388 L 1037 386 L 1027 386 L 1026 385 L 1026 384 L 1027 383 L 1028 384 L 1027 383 L 1027 376 L 1026 375 L 950 375 L 949 374 L 950 373 L 953 373 L 951 373 L 950 372 L 950 366 L 952 364 L 952 363 L 953 362 L 1061 362 L 1063 360 L 1065 360 L 1067 358 L 1067 348 L 1068 347 L 1069 348 L 1069 355 L 1069 350 L 1070 349 L 1070 347 L 1071 346 L 1072 347 L 1071 346 L 1071 345 L 1072 344 L 1072 343 L 1071 342 L 1071 340 L 1072 339 L 1072 337 L 1073 336 L 1073 335 L 1074 334 L 1075 334 L 1076 333 L 1077 333 L 1077 332 L 1079 330 L 1079 329 L 1078 328 L 1079 327 L 1079 323 L 1078 322 L 1078 321 L 1077 320 L 884 320 L 882 322 L 881 322 L 880 323 L 880 327 L 879 328 L 879 330 L 877 333 L 867 333 L 866 334 L 866 335 L 864 338 L 863 337 L 862 338 L 858 338 L 856 340 L 856 341 L 855 342 L 855 346 L 853 348 L 853 358 L 850 361 L 846 361 L 843 364 L 843 373 L 842 374 L 841 373 L 841 368 L 841 373 L 840 374 L 841 375 L 838 377 L 838 380 L 837 381 L 837 382 L 838 383 L 838 385 L 837 386 L 836 385 L 837 386 L 837 389 L 838 390 L 840 390 L 841 391 L 843 391 L 844 392 L 845 391 L 846 392 L 846 394 L 845 395 L 845 400 L 846 400 L 847 401 L 855 401 L 856 402 L 854 404 L 854 407 L 853 408 L 853 411 L 856 414 L 941 414 L 942 415 L 942 418 L 941 419 L 941 424 L 940 425 L 939 424 L 939 423 L 938 424 L 925 424 L 939 424 L 940 425 L 939 426 L 824 426 L 821 429 L 821 439 L 820 440 L 819 440 L 818 439 L 819 438 L 819 430 L 819 437 L 818 438 L 816 438 L 817 438 L 819 440 L 818 441 L 815 441 L 813 443 L 813 444 L 812 445 L 812 452 L 811 453 L 810 453 L 809 452 L 810 451 L 810 446 L 810 451 L 809 452 L 810 453 L 810 463 L 809 464 L 808 463 L 808 462 L 808 463 L 809 464 L 809 465 L 808 466 L 806 466 L 805 465 L 804 465 L 805 465 L 806 466 L 805 467 L 804 467 L 802 470 Z M 840 374 L 841 373 L 842 374 L 841 375 Z M 627 340 L 627 341 L 626 342 L 626 345 L 624 347 L 624 359 L 622 361 L 618 361 L 615 364 L 615 366 L 614 367 L 613 366 L 614 367 L 614 370 L 615 371 L 615 372 L 612 375 L 612 386 L 610 388 L 607 388 L 604 391 L 604 398 L 603 399 L 602 398 L 602 397 L 602 398 L 603 399 L 602 400 L 601 400 L 601 412 L 600 413 L 599 412 L 599 410 L 599 412 L 600 413 L 599 414 L 598 414 L 595 417 L 595 418 L 594 419 L 593 418 L 592 419 L 592 424 L 590 426 L 590 427 L 590 426 L 591 425 L 592 426 L 592 436 L 591 437 L 590 436 L 590 433 L 590 434 L 589 435 L 588 435 L 590 437 L 589 438 L 587 438 L 590 438 L 591 439 L 588 441 L 588 442 L 586 445 L 586 449 L 585 450 L 584 449 L 584 448 L 584 449 L 582 451 L 582 452 L 583 451 L 584 452 L 584 453 L 587 456 L 594 456 L 595 457 L 595 458 L 594 459 L 593 458 L 591 458 L 593 458 L 594 459 L 594 461 L 593 462 L 593 466 L 594 467 L 603 467 L 604 468 L 604 470 L 603 471 L 602 471 L 602 479 L 603 480 L 604 480 L 605 481 L 671 481 L 672 482 L 673 482 L 674 481 L 685 481 L 686 482 L 691 482 L 692 481 L 775 481 L 777 479 L 777 468 L 780 466 L 781 466 L 782 467 L 781 466 L 783 464 L 783 463 L 784 462 L 785 463 L 785 464 L 786 463 L 786 462 L 789 460 L 788 459 L 789 458 L 790 458 L 790 456 L 791 455 L 791 452 L 790 451 L 790 446 L 791 445 L 791 443 L 792 442 L 792 441 L 793 440 L 795 440 L 798 437 L 798 436 L 799 435 L 799 427 L 798 426 L 797 426 L 796 425 L 693 425 L 692 424 L 692 414 L 693 413 L 695 413 L 697 411 L 697 410 L 698 409 L 698 402 L 699 401 L 700 402 L 700 408 L 700 402 L 699 401 L 700 400 L 701 400 L 703 398 L 703 389 L 704 388 L 705 388 L 706 387 L 708 387 L 709 386 L 709 381 L 711 378 L 713 378 L 714 379 L 720 379 L 721 378 L 816 378 L 817 379 L 818 379 L 822 375 L 822 368 L 823 367 L 823 362 L 824 361 L 825 361 L 827 359 L 830 359 L 832 357 L 832 348 L 834 346 L 834 345 L 836 342 L 836 337 L 837 336 L 837 334 L 836 333 L 825 333 L 824 332 L 826 330 L 826 329 L 827 328 L 827 323 L 824 320 L 655 320 L 654 321 L 653 321 L 651 323 L 651 327 L 650 328 L 649 327 L 649 325 L 649 327 L 650 328 L 650 331 L 649 332 L 649 334 L 648 335 L 637 335 L 637 337 L 636 338 L 629 338 Z M 786 460 L 787 459 L 788 460 L 787 461 Z M 785 459 L 786 460 L 786 462 L 785 463 L 784 462 L 784 460 Z M 583 450 L 584 449 L 585 450 L 584 451 Z M 590 438 L 591 437 L 592 438 L 591 439 Z M 591 425 L 592 424 L 593 425 L 592 426 Z M 592 424 L 593 423 L 594 424 L 593 425 Z M 328 447 L 328 448 L 329 448 L 330 449 L 330 450 L 329 451 L 329 453 L 332 456 L 339 456 L 340 457 L 340 460 L 338 463 L 338 465 L 340 467 L 349 467 L 350 468 L 349 469 L 342 469 L 345 469 L 346 470 L 347 469 L 349 469 L 350 470 L 348 472 L 348 479 L 351 481 L 475 481 L 476 482 L 480 482 L 481 481 L 532 481 L 533 482 L 532 481 L 535 479 L 535 475 L 537 473 L 537 468 L 538 467 L 549 467 L 550 466 L 551 466 L 553 464 L 553 462 L 555 459 L 556 460 L 557 460 L 557 459 L 559 457 L 557 457 L 556 456 L 557 455 L 559 455 L 561 453 L 561 451 L 560 450 L 560 447 L 561 446 L 561 444 L 560 443 L 562 441 L 565 441 L 568 438 L 568 437 L 569 436 L 569 428 L 570 427 L 574 427 L 574 426 L 576 424 L 576 414 L 577 413 L 579 413 L 582 410 L 582 408 L 583 407 L 583 403 L 584 402 L 585 403 L 585 404 L 585 401 L 584 401 L 583 400 L 584 399 L 584 389 L 585 388 L 589 388 L 592 385 L 592 377 L 591 376 L 593 374 L 594 374 L 595 373 L 595 370 L 596 369 L 596 362 L 601 357 L 601 356 L 602 355 L 602 348 L 600 346 L 592 346 L 591 345 L 591 344 L 592 343 L 592 338 L 593 337 L 593 334 L 592 333 L 585 333 L 584 332 L 583 333 L 582 332 L 582 330 L 583 329 L 583 323 L 580 320 L 404 320 L 403 321 L 402 321 L 399 323 L 399 328 L 398 329 L 397 328 L 397 327 L 397 328 L 398 329 L 398 332 L 395 335 L 387 335 L 385 337 L 378 337 L 375 340 L 375 343 L 374 344 L 374 346 L 373 347 L 371 347 L 372 348 L 372 358 L 370 360 L 367 360 L 365 362 L 364 362 L 364 363 L 362 365 L 362 371 L 361 372 L 360 371 L 360 372 L 361 373 L 358 375 L 358 386 L 357 387 L 356 386 L 356 385 L 354 387 L 353 387 L 350 389 L 351 390 L 350 391 L 350 396 L 348 398 L 347 398 L 348 398 L 349 399 L 346 401 L 346 402 L 347 403 L 347 409 L 346 410 L 346 412 L 345 413 L 344 412 L 343 412 L 344 412 L 345 413 L 344 414 L 343 414 L 340 417 L 340 419 L 338 421 L 337 421 L 337 422 L 339 425 L 337 427 L 337 439 L 336 440 L 335 440 L 334 439 L 335 438 L 335 434 L 334 433 L 334 436 L 335 437 L 334 438 L 332 438 L 333 438 L 335 440 L 332 443 L 332 444 L 331 445 L 331 446 L 329 448 Z M 554 457 L 555 456 L 556 457 L 555 458 Z M 329 448 L 330 447 L 331 448 L 330 449 Z M 338 424 L 339 423 L 340 424 L 339 425 Z M 478 409 L 479 410 L 479 412 L 478 413 L 475 413 L 474 412 L 475 411 L 477 411 L 477 410 Z M 582 401 L 583 400 L 584 401 L 583 402 Z M 487 388 L 488 387 L 489 388 L 488 389 Z M 491 380 L 491 382 L 490 383 L 490 387 L 489 388 L 488 387 L 487 387 L 486 388 L 485 388 L 486 389 L 483 391 L 483 393 L 482 394 L 482 398 L 480 400 L 480 409 L 479 410 L 478 409 L 476 411 L 475 411 L 474 412 L 475 413 L 473 415 L 473 416 L 472 417 L 472 422 L 470 424 L 469 423 L 444 423 L 443 422 L 442 423 L 441 422 L 441 421 L 442 420 L 442 419 L 441 418 L 441 416 L 442 415 L 443 415 L 441 415 L 441 423 L 469 423 L 470 424 L 469 425 L 440 425 L 439 424 L 439 414 L 440 413 L 442 413 L 445 410 L 445 409 L 446 408 L 446 401 L 447 400 L 449 400 L 451 398 L 451 389 L 452 388 L 453 388 L 455 386 L 455 385 L 456 384 L 455 383 L 455 382 L 456 381 L 456 379 L 457 378 L 458 379 L 481 379 L 482 378 L 483 379 L 488 379 L 489 378 Z M 1861 264 L 1860 264 L 1859 263 L 1773 263 L 1769 267 L 1769 277 L 1768 278 L 1768 279 L 1767 280 L 1762 280 L 1761 281 L 1761 282 L 1759 284 L 1759 288 L 1758 289 L 1758 290 L 1756 292 L 1756 303 L 1755 304 L 1754 303 L 1753 304 L 1754 304 L 1755 305 L 1754 306 L 1751 306 L 1750 307 L 1749 307 L 1749 308 L 1747 310 L 1747 318 L 1746 319 L 1744 319 L 1743 320 L 1742 319 L 1741 320 L 1740 319 L 1739 320 L 1738 320 L 1737 319 L 1736 320 L 1735 319 L 1734 320 L 1721 320 L 1719 322 L 1718 322 L 1718 333 L 1716 336 L 1711 336 L 1709 338 L 1709 339 L 1708 340 L 1708 346 L 1706 348 L 1706 353 L 1705 354 L 1704 353 L 1704 351 L 1704 355 L 1705 354 L 1706 355 L 1706 359 L 1704 361 L 1701 361 L 1699 363 L 1699 364 L 1698 365 L 1698 370 L 1696 372 L 1696 378 L 1697 378 L 1698 379 L 1711 379 L 1712 380 L 1712 385 L 1711 386 L 1710 385 L 1710 382 L 1710 384 L 1709 385 L 1710 385 L 1711 386 L 1705 390 L 1705 399 L 1704 400 L 1700 400 L 1699 401 L 1698 400 L 1696 402 L 1697 403 L 1696 404 L 1696 416 L 1694 418 L 1694 419 L 1693 420 L 1693 422 L 1692 423 L 1691 422 L 1691 421 L 1691 422 L 1689 424 L 1688 423 L 1690 425 L 1690 426 L 1689 427 L 1689 438 L 1688 439 L 1687 438 L 1687 433 L 1687 434 L 1686 435 L 1685 435 L 1685 436 L 1686 436 L 1687 437 L 1686 438 L 1684 438 L 1686 440 L 1685 441 L 1685 442 L 1683 445 L 1682 444 L 1682 443 L 1682 444 L 1683 445 L 1683 449 L 1682 450 L 1681 449 L 1681 448 L 1681 449 L 1680 450 L 1681 451 L 1681 454 L 1683 456 L 1689 456 L 1690 457 L 1689 458 L 1689 461 L 1688 462 L 1688 464 L 1687 465 L 1686 464 L 1686 462 L 1686 463 L 1685 464 L 1685 465 L 1686 466 L 1687 465 L 1688 466 L 1688 467 L 1697 467 L 1698 468 L 1697 469 L 1689 469 L 1694 469 L 1696 471 L 1696 479 L 1697 479 L 1699 481 L 1803 481 L 1805 479 L 1805 468 L 1808 466 L 1809 466 L 1810 467 L 1809 466 L 1811 463 L 1811 459 L 1812 458 L 1816 458 L 1817 459 L 1816 460 L 1814 460 L 1816 460 L 1817 459 L 1816 458 L 1818 456 L 1818 443 L 1820 440 L 1824 440 L 1825 441 L 1824 440 L 1825 439 L 1825 438 L 1827 436 L 1827 427 L 1824 425 L 1789 425 L 1788 424 L 1788 415 L 1790 413 L 1791 413 L 1794 410 L 1794 402 L 1795 401 L 1796 401 L 1797 400 L 1799 400 L 1800 399 L 1800 389 L 1801 388 L 1802 388 L 1805 386 L 1805 380 L 1807 378 L 1808 378 L 1809 379 L 1813 379 L 1814 378 L 1842 378 L 1843 379 L 1848 379 L 1849 378 L 1850 378 L 1850 377 L 1853 374 L 1853 362 L 1854 361 L 1855 361 L 1858 358 L 1860 358 L 1862 356 L 1862 348 L 1863 347 L 1863 340 L 1864 339 L 1864 336 L 1867 333 L 1870 333 L 1870 332 L 1872 329 L 1871 328 L 1871 321 L 1870 321 L 1869 320 L 1847 320 L 1844 318 L 1844 307 L 1846 305 L 1847 305 L 1853 299 L 1853 292 L 1855 290 L 1855 289 L 1854 288 L 1854 286 L 1856 283 L 1856 282 L 1855 281 L 1855 280 L 1857 278 L 1860 278 L 1861 277 L 1861 276 L 1863 274 L 1863 266 Z M 1695 470 L 1696 469 L 1697 470 L 1696 471 Z M 1680 450 L 1681 449 L 1682 450 L 1681 451 Z M 1685 439 L 1686 438 L 1687 438 L 1688 439 L 1687 440 L 1686 440 Z M 1689 424 L 1690 423 L 1691 424 L 1690 425 Z M 1690 423 L 1691 422 L 1692 423 L 1691 424 Z M 1696 402 L 1697 401 L 1698 402 L 1697 403 Z M 1697 401 L 1698 400 L 1699 401 L 1698 402 Z M 1249 263 L 1161 263 L 1157 267 L 1157 278 L 1155 280 L 1150 280 L 1148 282 L 1148 286 L 1146 288 L 1146 289 L 1143 292 L 1143 305 L 1142 306 L 1139 306 L 1138 307 L 1137 307 L 1137 308 L 1135 310 L 1135 318 L 1134 319 L 1133 318 L 1133 316 L 1133 318 L 1134 319 L 1133 320 L 1107 320 L 1104 323 L 1104 333 L 1103 334 L 1101 334 L 1102 334 L 1103 335 L 1102 336 L 1100 336 L 1099 335 L 1098 335 L 1095 338 L 1095 339 L 1094 340 L 1094 343 L 1093 344 L 1094 345 L 1093 346 L 1093 357 L 1092 358 L 1092 360 L 1091 361 L 1087 361 L 1086 362 L 1086 363 L 1084 366 L 1084 368 L 1085 369 L 1085 370 L 1084 371 L 1084 377 L 1086 379 L 1099 379 L 1100 380 L 1100 385 L 1099 386 L 1098 385 L 1099 386 L 1098 387 L 1097 387 L 1096 386 L 1095 386 L 1093 388 L 1094 389 L 1092 391 L 1092 399 L 1091 400 L 1087 400 L 1085 403 L 1085 410 L 1084 411 L 1082 411 L 1082 413 L 1081 414 L 1082 415 L 1079 417 L 1079 424 L 1076 427 L 1076 430 L 1075 431 L 1075 439 L 1074 440 L 1073 440 L 1070 443 L 1070 444 L 1069 445 L 1069 450 L 1068 451 L 1068 454 L 1070 456 L 1076 456 L 1077 457 L 1076 458 L 1076 460 L 1075 461 L 1074 461 L 1075 462 L 1075 466 L 1076 467 L 1085 467 L 1086 468 L 1085 469 L 1077 469 L 1085 469 L 1086 470 L 1084 472 L 1085 473 L 1085 477 L 1084 478 L 1087 481 L 1192 481 L 1194 479 L 1194 468 L 1197 465 L 1197 464 L 1198 463 L 1198 461 L 1199 460 L 1204 460 L 1204 455 L 1205 454 L 1206 455 L 1206 458 L 1207 457 L 1208 458 L 1208 452 L 1207 451 L 1207 449 L 1206 448 L 1207 447 L 1207 442 L 1209 440 L 1212 440 L 1214 438 L 1214 437 L 1215 436 L 1215 427 L 1214 426 L 1215 425 L 1214 424 L 1213 425 L 1178 425 L 1177 424 L 1177 414 L 1178 413 L 1179 413 L 1180 414 L 1179 415 L 1179 417 L 1179 416 L 1181 414 L 1180 413 L 1180 412 L 1182 410 L 1182 402 L 1185 400 L 1187 400 L 1189 398 L 1189 389 L 1190 388 L 1191 388 L 1192 387 L 1193 387 L 1195 385 L 1195 384 L 1196 383 L 1196 379 L 1197 378 L 1198 379 L 1198 383 L 1198 380 L 1199 379 L 1217 379 L 1218 378 L 1235 378 L 1236 379 L 1237 378 L 1238 378 L 1239 377 L 1239 376 L 1241 374 L 1241 362 L 1242 361 L 1244 361 L 1247 359 L 1249 359 L 1250 358 L 1251 358 L 1251 348 L 1252 347 L 1253 348 L 1253 354 L 1253 348 L 1252 347 L 1253 346 L 1253 336 L 1255 334 L 1256 334 L 1257 333 L 1259 333 L 1259 332 L 1261 330 L 1261 322 L 1258 320 L 1235 320 L 1233 318 L 1233 307 L 1234 306 L 1235 306 L 1237 304 L 1238 304 L 1239 303 L 1239 302 L 1241 300 L 1241 293 L 1244 290 L 1244 285 L 1245 284 L 1245 282 L 1244 281 L 1247 278 L 1249 278 L 1252 275 L 1252 266 Z M 1206 452 L 1207 451 L 1208 452 L 1208 453 L 1207 454 L 1206 453 Z M 1213 425 L 1214 424 L 1215 425 L 1214 426 Z M 1082 413 L 1083 412 L 1084 413 L 1083 414 Z M 1083 412 L 1084 411 L 1085 412 L 1084 413 Z M 1093 388 L 1094 387 L 1095 388 L 1094 389 Z M 378 266 L 375 263 L 290 263 L 286 267 L 286 279 L 285 280 L 280 280 L 277 283 L 277 288 L 276 289 L 276 290 L 274 292 L 274 304 L 273 305 L 272 304 L 269 304 L 272 304 L 273 305 L 272 306 L 269 306 L 267 308 L 267 309 L 266 310 L 266 318 L 264 320 L 157 320 L 156 319 L 150 323 L 150 328 L 149 329 L 149 332 L 147 335 L 136 335 L 136 337 L 135 338 L 128 338 L 126 340 L 126 342 L 125 343 L 125 345 L 123 347 L 123 358 L 122 359 L 122 360 L 121 361 L 117 361 L 113 365 L 113 370 L 114 371 L 114 372 L 111 375 L 111 386 L 109 388 L 108 388 L 107 389 L 106 389 L 103 392 L 103 397 L 102 398 L 101 397 L 101 393 L 101 396 L 100 397 L 99 397 L 99 398 L 102 398 L 103 399 L 102 400 L 99 400 L 99 412 L 98 413 L 97 412 L 97 410 L 96 411 L 95 411 L 98 413 L 95 416 L 94 416 L 92 418 L 92 425 L 90 427 L 90 439 L 89 440 L 88 440 L 86 443 L 85 442 L 84 443 L 85 444 L 85 445 L 84 446 L 84 447 L 85 448 L 85 449 L 83 452 L 84 453 L 84 454 L 86 456 L 93 456 L 94 457 L 93 458 L 93 461 L 92 462 L 92 466 L 93 467 L 102 467 L 103 468 L 102 469 L 102 471 L 101 472 L 101 480 L 102 480 L 103 481 L 291 481 L 292 480 L 293 481 L 294 480 L 293 479 L 293 468 L 295 466 L 296 466 L 298 464 L 299 465 L 298 464 L 298 462 L 299 461 L 300 462 L 300 463 L 300 462 L 301 461 L 303 461 L 304 460 L 305 460 L 300 460 L 299 459 L 300 458 L 304 458 L 306 456 L 307 457 L 308 456 L 308 452 L 308 455 L 307 456 L 306 455 L 306 442 L 308 440 L 311 440 L 313 438 L 313 437 L 314 436 L 314 428 L 315 427 L 318 427 L 319 426 L 320 427 L 319 426 L 319 425 L 320 424 L 320 414 L 321 413 L 323 413 L 323 412 L 324 411 L 324 410 L 328 406 L 328 405 L 327 404 L 327 402 L 328 401 L 327 400 L 328 399 L 328 397 L 329 396 L 328 395 L 328 389 L 331 387 L 333 387 L 335 385 L 335 384 L 336 383 L 336 376 L 337 375 L 338 376 L 338 378 L 338 377 L 340 375 L 339 374 L 340 373 L 339 372 L 339 362 L 340 361 L 343 361 L 344 360 L 345 360 L 347 358 L 347 340 L 349 338 L 349 337 L 351 335 L 352 336 L 351 335 L 352 334 L 353 334 L 354 335 L 356 333 L 355 332 L 356 331 L 356 322 L 355 321 L 358 319 L 358 318 L 360 315 L 360 308 L 359 307 L 360 306 L 363 306 L 368 301 L 368 293 L 370 291 L 370 285 L 371 284 L 371 280 L 373 278 L 376 278 L 376 277 L 378 275 Z M 292 480 L 293 479 L 294 480 L 293 481 Z M 84 443 L 85 442 L 86 443 L 85 444 Z M 221 412 L 222 411 L 225 411 L 226 412 L 225 413 L 222 413 Z M 327 400 L 328 401 L 327 402 L 326 402 L 326 408 L 325 409 L 324 408 L 324 401 L 325 400 Z M 238 379 L 238 387 L 237 388 L 236 388 L 234 390 L 233 390 L 231 392 L 231 398 L 230 399 L 229 398 L 229 394 L 229 397 L 228 398 L 227 397 L 227 398 L 229 398 L 230 399 L 229 400 L 227 400 L 227 411 L 226 412 L 225 411 L 225 405 L 225 410 L 224 411 L 222 411 L 221 412 L 222 413 L 219 416 L 219 422 L 218 423 L 186 423 L 216 423 L 217 424 L 216 425 L 184 425 L 183 424 L 184 423 L 184 417 L 185 416 L 186 416 L 186 415 L 185 415 L 184 414 L 185 413 L 186 413 L 189 410 L 189 402 L 191 400 L 195 400 L 197 398 L 197 389 L 199 387 L 200 387 L 203 384 L 203 382 L 205 379 L 215 379 L 216 378 L 235 378 L 236 379 L 237 378 Z" fill-rule="evenodd"/>
    </clipPath>
  </defs>
  <rect width="100%" height="100%" fill="#ffffff"/>
  <g clip-path="url(#textClip)" shape-rendering="crispEdges">
    <rect x="83" y="263" width="2015" height="220" fill="url(#textGradient)"/>
    <rect x="83" y="263" width="2015" height="220" fill="url(#highlight)"/>
  </g>
</svg>
